<svg xmlns="http://www.w3.org/2000/svg" xmlns:xlink="http://www.w3.org/1999/xlink" width="1366" height="664" viewBox="0 0 1366 664"><defs><clipPath id="a"><rect width="529" height="611" transform="translate(0 159)" fill="#fff" stroke="#707070" stroke-width="1"/></clipPath><filter id="b" x="279.872" y="532.879" width="245.134" height="245.134" filterUnits="userSpaceOnUse"><feOffset dy="3" input="SourceAlpha"/><feGaussianBlur stdDeviation="3" result="c"/><feFlood flood-opacity="0.161"/><feComposite operator="in" in2="c"/><feComposite in="SourceGraphic"/></filter><filter id="d" x="37.609" y="513.695" width="245.134" height="245.134" filterUnits="userSpaceOnUse"><feOffset dy="3" input="SourceAlpha"/><feGaussianBlur stdDeviation="3" result="e"/><feFlood flood-opacity="0.161"/><feComposite operator="in" in2="e"/><feComposite in="SourceGraphic"/></filter><filter id="f" x="504.665" y="796.684" width="245.134" height="245.134" filterUnits="userSpaceOnUse"><feOffset dy="3" input="SourceAlpha"/><feGaussianBlur stdDeviation="3" result="g"/><feFlood flood-opacity="0.161"/><feComposite operator="in" in2="g"/><feComposite in="SourceGraphic"/></filter><filter id="h" x="262.403" y="777.5" width="245.134" height="245.134" filterUnits="userSpaceOnUse"><feOffset dy="3" input="SourceAlpha"/><feGaussianBlur stdDeviation="3" result="i"/><feFlood flood-opacity="0.161"/><feComposite operator="in" in2="i"/><feComposite in="SourceGraphic"/></filter><filter id="j" x="392.464" y="664.322" width="245.134" height="245.134" filterUnits="userSpaceOnUse"><feOffset dy="3" input="SourceAlpha"/><feGaussianBlur stdDeviation="3" result="k"/><feFlood flood-opacity="0.161"/><feComposite operator="in" in2="k"/><feComposite in="SourceGraphic"/></filter><filter id="l" x="150.201" y="645.137" width="245.134" height="245.134" filterUnits="userSpaceOnUse"><feOffset dy="3" input="SourceAlpha"/><feGaussianBlur stdDeviation="3" result="m"/><feFlood flood-opacity="0.161"/><feComposite operator="in" in2="m"/><feComposite in="SourceGraphic"/></filter><filter id="n" x="617.257" y="928.126" width="245.134" height="245.134" filterUnits="userSpaceOnUse"><feOffset dy="3" input="SourceAlpha"/><feGaussianBlur stdDeviation="3" result="o"/><feFlood flood-opacity="0.161"/><feComposite operator="in" in2="o"/><feComposite in="SourceGraphic"/></filter><filter id="p" x="374.994" y="908.942" width="245.134" height="245.134" filterUnits="userSpaceOnUse"><feOffset dy="3" input="SourceAlpha"/><feGaussianBlur stdDeviation="3" result="q"/><feFlood flood-opacity="0.161"/><feComposite operator="in" in2="q"/><feComposite in="SourceGraphic"/></filter><filter id="r" x="-171.128" y="5.641" width="245.134" height="245.134" filterUnits="userSpaceOnUse"><feOffset dy="3" input="SourceAlpha"/><feGaussianBlur stdDeviation="3" result="s"/><feFlood flood-opacity="0.161"/><feComposite operator="in" in2="s"/><feComposite in="SourceGraphic"/></filter><filter id="t" x="-413.391" y="-13.544" width="245.134" height="245.134" filterUnits="userSpaceOnUse"><feOffset dy="3" input="SourceAlpha"/><feGaussianBlur stdDeviation="3" result="u"/><feFlood flood-opacity="0.161"/><feComposite operator="in" in2="u"/><feComposite in="SourceGraphic"/></filter><filter id="v" x="53.665" y="269.445" width="245.134" height="245.134" filterUnits="userSpaceOnUse"><feOffset dy="3" input="SourceAlpha"/><feGaussianBlur stdDeviation="3" result="w"/><feFlood flood-opacity="0.161"/><feComposite operator="in" in2="w"/><feComposite in="SourceGraphic"/></filter><filter id="x" x="-188.597" y="250.261" width="245.134" height="245.134" filterUnits="userSpaceOnUse"><feOffset dy="3" input="SourceAlpha"/><feGaussianBlur stdDeviation="3" result="y"/><feFlood flood-opacity="0.161"/><feComposite operator="in" in2="y"/><feComposite in="SourceGraphic"/></filter><filter id="z" x="-58.536" y="137.083" width="245.134" height="245.134" filterUnits="userSpaceOnUse"><feOffset dy="3" input="SourceAlpha"/><feGaussianBlur stdDeviation="3" result="aa"/><feFlood flood-opacity="0.161"/><feComposite operator="in" in2="aa"/><feComposite in="SourceGraphic"/></filter><filter id="ab" x="-300.799" y="117.898" width="245.134" height="245.134" filterUnits="userSpaceOnUse"><feOffset dy="3" input="SourceAlpha"/><feGaussianBlur stdDeviation="3" result="ac"/><feFlood flood-opacity="0.161"/><feComposite operator="in" in2="ac"/><feComposite in="SourceGraphic"/></filter><filter id="ad" x="166.257" y="400.888" width="245.134" height="245.134" filterUnits="userSpaceOnUse"><feOffset dy="3" input="SourceAlpha"/><feGaussianBlur stdDeviation="3" result="ae"/><feFlood flood-opacity="0.161"/><feComposite operator="in" in2="ae"/><feComposite in="SourceGraphic"/></filter><filter id="af" x="-76.006" y="381.703" width="245.134" height="245.134" filterUnits="userSpaceOnUse"><feOffset dy="3" input="SourceAlpha"/><feGaussianBlur stdDeviation="3" result="ag"/><feFlood flood-opacity="0.161"/><feComposite operator="in" in2="ag"/><feComposite in="SourceGraphic"/></filter><clipPath id="ah"><rect width="239" height="469" fill="none"/></clipPath><clipPath id="ai"><rect width="548" height="618" transform="translate(818 152)" fill="#fff" stroke="#707070" stroke-width="1"/></clipPath></defs><g transform="translate(0 -106)"><g clip-path="url(#a)"><g transform="translate(333 406.478)"><g opacity="0.63"><g transform="matrix(0.921, 0.391, -0.391, 0.921, 6597.272, -5323.04)"><g transform="matrix(0.92, -0.39, 0.39, 0.92, -4416.88, 7331.17)" filter="url(#b)"><rect width="161" height="161" rx="12" transform="translate(410.38 538.88) rotate(49)" fill="#fff"/></g><g transform="matrix(0.92, -0.39, 0.39, 0.92, -4416.88, 7331.17)" filter="url(#d)"><rect width="161" height="161" rx="12" transform="translate(168.12 519.69) rotate(49)" fill="#fff"/></g><g transform="matrix(0.92, -0.39, 0.39, 0.92, -4416.88, 7331.17)" filter="url(#f)"><rect width="161" height="161" rx="12" transform="translate(635.17 802.68) rotate(49)" fill="#fff"/></g><g transform="matrix(0.92, -0.39, 0.39, 0.92, -4416.88, 7331.17)" filter="url(#h)"><rect width="161" height="161" rx="12" transform="translate(392.91 783.5) rotate(49)" fill="#fff"/></g><g transform="matrix(0.92, -0.39, 0.39, 0.92, -4416.88, 7331.17)" filter="url(#j)"><rect width="161" height="161" rx="12" transform="translate(522.97 670.32) rotate(49)" fill="#fff"/></g><g transform="matrix(0.92, -0.39, 0.39, 0.92, -4416.88, 7331.17)" filter="url(#l)"><rect width="161" height="161" rx="12" transform="translate(280.71 651.14) rotate(49)" fill="#fff"/></g><g transform="matrix(0.92, -0.39, 0.39, 0.92, -4416.88, 7331.17)" filter="url(#n)"><rect width="161" height="161" rx="12" transform="translate(747.77 934.13) rotate(49)" fill="#fff"/></g><g transform="matrix(0.92, -0.39, 0.39, 0.92, -4416.88, 7331.17)" filter="url(#p)"><rect width="161" height="161" rx="12" transform="translate(505.5 914.94) rotate(49)" fill="#fff"/></g></g><g transform="matrix(0.921, 0.391, -0.391, 0.921, 6146.272, -5850.278)"><g transform="matrix(0.92, -0.39, 0.39, 0.92, -3795.72, 7640.27)" filter="url(#r)"><rect width="161" height="161" rx="12" transform="translate(-40.62 11.64) rotate(49)" fill="#fff"/></g><g transform="matrix(0.92, -0.39, 0.39, 0.92, -3795.72, 7640.27)" filter="url(#t)"><rect width="161" height="161" rx="12" transform="translate(-282.88 -7.54) rotate(49)" fill="#fff"/></g><g transform="matrix(0.92, -0.39, 0.39, 0.92, -3795.72, 7640.27)" filter="url(#v)"><rect width="161" height="161" rx="12" transform="translate(184.17 275.45) rotate(49)" fill="#fff"/></g><g transform="matrix(0.92, -0.39, 0.39, 0.92, -3795.72, 7640.27)" filter="url(#x)"><rect width="161" height="161" rx="12" transform="translate(-58.09 256.26) rotate(49)" fill="#fff"/></g><g transform="matrix(0.92, -0.39, 0.39, 0.92, -3795.72, 7640.27)" filter="url(#z)"><rect width="161" height="161" rx="12" transform="translate(71.97 143.08) rotate(49)" fill="#fff"/></g><g transform="matrix(0.92, -0.39, 0.39, 0.92, -3795.72, 7640.27)" filter="url(#ab)"><rect width="161" height="161" rx="12" transform="translate(-170.29 123.9) rotate(49)" fill="#fff"/></g><g transform="matrix(0.92, -0.39, 0.39, 0.92, -3795.72, 7640.27)" filter="url(#ad)"><rect width="161" height="161" rx="12" transform="translate(296.77 406.89) rotate(49)" fill="#fff"/></g><g transform="matrix(0.92, -0.39, 0.39, 0.92, -3795.72, 7640.27)" filter="url(#af)"><rect width="161" height="161" rx="12" transform="translate(54.5 387.7) rotate(49)" fill="#fff"/></g></g></g></g></g><g transform="translate(997 -487)" opacity="0.486"><g transform="translate(0 593)" opacity="0.184" clip-path="url(#ah)"><g transform="translate(-83 -206)"><circle cx="2.5" cy="2.5" r="2.5" transform="translate(89 212)" fill="#007bff"/></g><g transform="translate(-56 -206)"><circle cx="2.5" cy="2.5" r="2.5" transform="translate(89 212)" fill="#007bff"/></g><g transform="translate(-29 -206)"><circle cx="2.5" cy="2.5" r="2.5" transform="translate(89 212)" fill="#007bff"/></g><g transform="translate(-2 -206)"><circle cx="2.5" cy="2.5" r="2.5" transform="translate(89 212)" fill="#007bff"/></g><g transform="translate(25 -206)"><circle cx="2.5" cy="2.5" r="2.5" transform="translate(89 212)" fill="#007bff"/></g><g transform="translate(52 -206)"><circle cx="2.5" cy="2.5" r="2.5" transform="translate(89 212)" fill="#007bff"/></g><g transform="translate(79 -206)"><circle cx="2.5" cy="2.5" r="2.5" transform="translate(89 212)" fill="#007bff"/></g><g transform="translate(106 -206)"><circle cx="2.5" cy="2.5" r="2.5" transform="translate(89 212)" fill="#007bff"/></g><g transform="translate(133 -206)"><circle cx="2.5" cy="2.5" r="2.5" transform="translate(89 212)" fill="#007bff"/></g><g transform="translate(-83 -183)"><circle cx="2.5" cy="2.5" r="2.5" transform="translate(89 212)" fill="#007bff"/></g><g transform="translate(-56 -183)"><circle cx="2.5" cy="2.5" r="2.5" transform="translate(89 212)" fill="#007bff"/></g><g transform="translate(-29 -183)"><circle cx="2.5" cy="2.5" r="2.5" transform="translate(89 212)" fill="#007bff"/></g><g transform="translate(-2 -183)"><circle cx="2.5" cy="2.5" r="2.5" transform="translate(89 212)" fill="#007bff"/></g><g transform="translate(25 -183)"><circle cx="2.5" cy="2.5" r="2.5" transform="translate(89 212)" fill="#007bff"/></g><g transform="translate(52 -183)"><circle cx="2.5" cy="2.5" r="2.5" transform="translate(89 212)" fill="#007bff"/></g><g transform="translate(79 -183)"><circle cx="2.5" cy="2.5" r="2.5" transform="translate(89 212)" fill="#007bff"/></g><g transform="translate(106 -183)"><circle cx="2.5" cy="2.5" r="2.5" transform="translate(89 212)" fill="#007bff"/></g><g transform="translate(133 -183)"><circle cx="2.5" cy="2.5" r="2.5" transform="translate(89 212)" fill="#007bff"/></g><g transform="translate(-83 -160)"><circle cx="2.5" cy="2.5" r="2.5" transform="translate(89 212)" fill="#007bff"/></g><g transform="translate(-56 -160)"><circle cx="2.5" cy="2.5" r="2.5" transform="translate(89 212)" fill="#007bff"/></g><g transform="translate(-29 -160)"><circle cx="2.5" cy="2.5" r="2.5" transform="translate(89 212)" fill="#007bff"/></g><g transform="translate(-2 -160)"><circle cx="2.5" cy="2.5" r="2.5" transform="translate(89 212)" fill="#007bff"/></g><g transform="translate(25 -160)"><circle cx="2.5" cy="2.5" r="2.5" transform="translate(89 212)" fill="#007bff"/></g><g transform="translate(52 -160)"><circle cx="2.5" cy="2.5" r="2.5" transform="translate(89 212)" fill="#007bff"/></g><g transform="translate(79 -160)"><circle cx="2.5" cy="2.5" r="2.5" transform="translate(89 212)" fill="#007bff"/></g><g transform="translate(106 -160)"><circle cx="2.5" cy="2.5" r="2.5" transform="translate(89 212)" fill="#007bff"/></g><g transform="translate(133 -160)"><circle cx="2.5" cy="2.5" r="2.5" transform="translate(89 212)" fill="#007bff"/></g><g transform="translate(-83 -137)"><circle cx="2.5" cy="2.5" r="2.5" transform="translate(89 212)" fill="#007bff"/></g><g transform="translate(-56 -137)"><circle cx="2.5" cy="2.5" r="2.5" transform="translate(89 212)" fill="#007bff"/></g><g transform="translate(-29 -137)"><circle cx="2.5" cy="2.5" r="2.5" transform="translate(89 212)" fill="#007bff"/></g><g transform="translate(-2 -137)"><circle cx="2.5" cy="2.5" r="2.5" transform="translate(89 212)" fill="#007bff"/></g><g transform="translate(25 -137)"><circle cx="2.5" cy="2.5" r="2.5" transform="translate(89 212)" fill="#007bff"/></g><g transform="translate(52 -137)"><circle cx="2.5" cy="2.5" r="2.5" transform="translate(89 212)" fill="#007bff"/></g><g transform="translate(79 -137)"><circle cx="2.5" cy="2.5" r="2.5" transform="translate(89 212)" fill="#007bff"/></g><g transform="translate(106 -137)"><circle cx="2.5" cy="2.5" r="2.5" transform="translate(89 212)" fill="#007bff"/></g><g transform="translate(133 -137)"><circle cx="2.5" cy="2.5" r="2.5" transform="translate(89 212)" fill="#007bff"/></g><g transform="translate(-83 -114)"><circle cx="2.5" cy="2.5" r="2.5" transform="translate(89 212)" fill="#007bff"/></g><g transform="translate(-56 -114)"><circle cx="2.5" cy="2.5" r="2.5" transform="translate(89 212)" fill="#007bff"/></g><g transform="translate(-29 -114)"><circle cx="2.5" cy="2.5" r="2.5" transform="translate(89 212)" fill="#007bff"/></g><g transform="translate(-2 -114)"><circle cx="2.5" cy="2.5" r="2.5" transform="translate(89 212)" fill="#007bff"/></g><g transform="translate(25 -114)"><circle cx="2.5" cy="2.5" r="2.5" transform="translate(89 212)" fill="#007bff"/></g><g transform="translate(52 -114)"><circle cx="2.5" cy="2.5" r="2.5" transform="translate(89 212)" fill="#007bff"/></g><g transform="translate(79 -114)"><circle cx="2.5" cy="2.5" r="2.5" transform="translate(89 212)" fill="#007bff"/></g><g transform="translate(106 -114)"><circle cx="2.5" cy="2.5" r="2.5" transform="translate(89 212)" fill="#007bff"/></g><g transform="translate(133 -114)"><circle cx="2.5" cy="2.5" r="2.5" transform="translate(89 212)" fill="#007bff"/></g><g transform="translate(-83 -91)"><circle cx="2.5" cy="2.5" r="2.5" transform="translate(89 212)" fill="#007bff"/></g><g transform="translate(-56 -91)"><circle cx="2.5" cy="2.5" r="2.5" transform="translate(89 212)" fill="#007bff"/></g><g transform="translate(-29 -91)"><circle cx="2.5" cy="2.5" r="2.5" transform="translate(89 212)" fill="#007bff"/></g><g transform="translate(-2 -91)"><circle cx="2.5" cy="2.5" r="2.5" transform="translate(89 212)" fill="#007bff"/></g><g transform="translate(25 -91)"><circle cx="2.5" cy="2.5" r="2.5" transform="translate(89 212)" fill="#007bff"/></g><g transform="translate(52 -91)"><circle cx="2.5" cy="2.5" r="2.5" transform="translate(89 212)" fill="#007bff"/></g><g transform="translate(79 -91)"><circle cx="2.5" cy="2.5" r="2.5" transform="translate(89 212)" fill="#007bff"/></g><g transform="translate(106 -91)"><circle cx="2.5" cy="2.5" r="2.5" transform="translate(89 212)" fill="#007bff"/></g><g transform="translate(133 -91)"><circle cx="2.5" cy="2.5" r="2.5" transform="translate(89 212)" fill="#007bff"/></g><g transform="translate(-83 -68)"><circle cx="2.5" cy="2.5" r="2.5" transform="translate(89 212)" fill="#007bff"/></g><g transform="translate(-56 -68)"><circle cx="2.5" cy="2.5" r="2.5" transform="translate(89 212)" fill="#007bff"/></g><g transform="translate(-29 -68)"><circle cx="2.5" cy="2.5" r="2.5" transform="translate(89 212)" fill="#007bff"/></g><g transform="translate(-2 -68)"><circle cx="2.5" cy="2.5" r="2.5" transform="translate(89 212)" fill="#007bff"/></g><g transform="translate(25 -68)"><circle cx="2.5" cy="2.5" r="2.5" transform="translate(89 212)" fill="#007bff"/></g><g transform="translate(52 -68)"><circle cx="2.5" cy="2.5" r="2.5" transform="translate(89 212)" fill="#007bff"/></g><g transform="translate(79 -68)"><circle cx="2.5" cy="2.5" r="2.5" transform="translate(89 212)" fill="#007bff"/></g><g transform="translate(106 -68)"><circle cx="2.5" cy="2.5" r="2.5" transform="translate(89 212)" fill="#007bff"/></g><g transform="translate(133 -68)"><circle cx="2.5" cy="2.5" r="2.5" transform="translate(89 212)" fill="#007bff"/></g><g transform="translate(-83 -45)"><circle cx="2.5" cy="2.5" r="2.5" transform="translate(89 212)" fill="#007bff"/></g><g transform="translate(-56 -45)"><circle cx="2.5" cy="2.5" r="2.5" transform="translate(89 212)" fill="#007bff"/></g><g transform="translate(-29 -45)"><circle cx="2.5" cy="2.5" r="2.5" transform="translate(89 212)" fill="#007bff"/></g><g transform="translate(-2 -45)"><circle cx="2.5" cy="2.5" r="2.5" transform="translate(89 212)" fill="#007bff"/></g><g transform="translate(25 -45)"><circle cx="2.5" cy="2.5" r="2.5" transform="translate(89 212)" fill="#007bff"/></g><g transform="translate(52 -45)"><circle cx="2.5" cy="2.5" r="2.5" transform="translate(89 212)" fill="#007bff"/></g><g transform="translate(79 -45)"><circle cx="2.5" cy="2.5" r="2.5" transform="translate(89 212)" fill="#007bff"/></g><g transform="translate(106 -45)"><circle cx="2.5" cy="2.5" r="2.5" transform="translate(89 212)" fill="#007bff"/></g><g transform="translate(133 -45)"><circle cx="2.5" cy="2.5" r="2.5" transform="translate(89 212)" fill="#007bff"/></g><g transform="translate(-83 -22)"><circle cx="2.5" cy="2.5" r="2.5" transform="translate(89 212)" fill="#007bff"/></g><g transform="translate(-56 -22)"><circle cx="2.5" cy="2.5" r="2.5" transform="translate(89 212)" fill="#007bff"/></g><g transform="translate(-29 -22)"><circle cx="2.5" cy="2.5" r="2.5" transform="translate(89 212)" fill="#007bff"/></g><g transform="translate(-2 -22)"><circle cx="2.5" cy="2.5" r="2.5" transform="translate(89 212)" fill="#007bff"/></g><g transform="translate(25 -22)"><circle cx="2.5" cy="2.5" r="2.5" transform="translate(89 212)" fill="#007bff"/></g><g transform="translate(52 -22)"><circle cx="2.5" cy="2.5" r="2.5" transform="translate(89 212)" fill="#007bff"/></g><g transform="translate(79 -22)"><circle cx="2.5" cy="2.5" r="2.5" transform="translate(89 212)" fill="#007bff"/></g><g transform="translate(106 -22)"><circle cx="2.5" cy="2.5" r="2.5" transform="translate(89 212)" fill="#007bff"/></g><g transform="translate(133 -22)"><circle cx="2.5" cy="2.5" r="2.5" transform="translate(89 212)" fill="#007bff"/></g><g transform="translate(-83 1)"><circle cx="2.5" cy="2.5" r="2.5" transform="translate(89 212)" fill="#007bff"/></g><g transform="translate(-56 1)"><circle cx="2.5" cy="2.5" r="2.5" transform="translate(89 212)" fill="#007bff"/></g><g transform="translate(-29 1)"><circle cx="2.5" cy="2.5" r="2.5" transform="translate(89 212)" fill="#007bff"/></g><g transform="translate(-2 1)"><circle cx="2.5" cy="2.5" r="2.5" transform="translate(89 212)" fill="#007bff"/></g><g transform="translate(25 1)"><circle cx="2.5" cy="2.5" r="2.5" transform="translate(89 212)" fill="#007bff"/></g><g transform="translate(52 1)"><circle cx="2.5" cy="2.5" r="2.5" transform="translate(89 212)" fill="#007bff"/></g><g transform="translate(79 1)"><circle cx="2.5" cy="2.5" r="2.5" transform="translate(89 212)" fill="#007bff"/></g><g transform="translate(106 1)"><circle cx="2.5" cy="2.5" r="2.5" transform="translate(89 212)" fill="#007bff"/></g><g transform="translate(133 1)"><circle cx="2.5" cy="2.5" r="2.5" transform="translate(89 212)" fill="#007bff"/></g><g transform="translate(-83 24)"><circle cx="2.5" cy="2.5" r="2.5" transform="translate(89 212)" fill="#007bff"/></g><g transform="translate(-56 24)"><circle cx="2.5" cy="2.5" r="2.5" transform="translate(89 212)" fill="#007bff"/></g><g transform="translate(-29 24)"><circle cx="2.5" cy="2.5" r="2.5" transform="translate(89 212)" fill="#007bff"/></g><g transform="translate(-2 24)"><circle cx="2.5" cy="2.5" r="2.5" transform="translate(89 212)" fill="#007bff"/></g><g transform="translate(25 24)"><circle cx="2.5" cy="2.5" r="2.5" transform="translate(89 212)" fill="#007bff"/></g><g transform="translate(52 24)"><circle cx="2.5" cy="2.5" r="2.5" transform="translate(89 212)" fill="#007bff"/></g><g transform="translate(79 24)"><circle cx="2.5" cy="2.5" r="2.5" transform="translate(89 212)" fill="#007bff"/></g><g transform="translate(106 24)"><circle cx="2.5" cy="2.5" r="2.5" transform="translate(89 212)" fill="#007bff"/></g><g transform="translate(133 24)"><circle cx="2.5" cy="2.5" r="2.5" transform="translate(89 212)" fill="#007bff"/></g><g transform="translate(-83 47)"><circle cx="2.5" cy="2.5" r="2.5" transform="translate(89 212)" fill="#007bff"/></g><g transform="translate(-56 47)"><circle cx="2.5" cy="2.5" r="2.5" transform="translate(89 212)" fill="#007bff"/></g><g transform="translate(-29 47)"><circle cx="2.5" cy="2.5" r="2.5" transform="translate(89 212)" fill="#007bff"/></g><g transform="translate(-2 47)"><circle cx="2.5" cy="2.5" r="2.5" transform="translate(89 212)" fill="#007bff"/></g><g transform="translate(25 47)"><circle cx="2.5" cy="2.5" r="2.5" transform="translate(89 212)" fill="#007bff"/></g><g transform="translate(52 47)"><circle cx="2.5" cy="2.5" r="2.5" transform="translate(89 212)" fill="#007bff"/></g><g transform="translate(79 47)"><circle cx="2.5" cy="2.5" r="2.5" transform="translate(89 212)" fill="#007bff"/></g><g transform="translate(106 47)"><circle cx="2.5" cy="2.5" r="2.5" transform="translate(89 212)" fill="#007bff"/></g><g transform="translate(133 47)"><circle cx="2.5" cy="2.5" r="2.5" transform="translate(89 212)" fill="#007bff"/></g><g transform="translate(-83 70)"><circle cx="2.5" cy="2.5" r="2.5" transform="translate(89 212)" fill="#007bff"/></g><g transform="translate(-56 70)"><circle cx="2.5" cy="2.5" r="2.5" transform="translate(89 212)" fill="#007bff"/></g><g transform="translate(-29 70)"><circle cx="2.5" cy="2.5" r="2.5" transform="translate(89 212)" fill="#007bff"/></g><g transform="translate(-2 70)"><circle cx="2.5" cy="2.5" r="2.5" transform="translate(89 212)" fill="#007bff"/></g><g transform="translate(25 70)"><circle cx="2.5" cy="2.5" r="2.5" transform="translate(89 212)" fill="#007bff"/></g><g transform="translate(52 70)"><circle cx="2.5" cy="2.5" r="2.5" transform="translate(89 212)" fill="#007bff"/></g><g transform="translate(79 70)"><circle cx="2.5" cy="2.5" r="2.5" transform="translate(89 212)" fill="#007bff"/></g><g transform="translate(106 70)"><circle cx="2.5" cy="2.5" r="2.5" transform="translate(89 212)" fill="#007bff"/></g><g transform="translate(133 70)"><circle cx="2.5" cy="2.5" r="2.5" transform="translate(89 212)" fill="#007bff"/></g><g transform="translate(-83 93)"><circle cx="2.5" cy="2.5" r="2.5" transform="translate(89 212)" fill="#007bff"/></g><g transform="translate(-56 93)"><circle cx="2.5" cy="2.5" r="2.5" transform="translate(89 212)" fill="#007bff"/></g><g transform="translate(-29 93)"><circle cx="2.5" cy="2.5" r="2.5" transform="translate(89 212)" fill="#007bff"/></g><g transform="translate(-2 93)"><circle cx="2.5" cy="2.5" r="2.5" transform="translate(89 212)" fill="#007bff"/></g><g transform="translate(25 93)"><circle cx="2.5" cy="2.5" r="2.5" transform="translate(89 212)" fill="#007bff"/></g><g transform="translate(52 93)"><circle cx="2.5" cy="2.5" r="2.5" transform="translate(89 212)" fill="#007bff"/></g><g transform="translate(79 93)"><circle cx="2.5" cy="2.5" r="2.5" transform="translate(89 212)" fill="#007bff"/></g><g transform="translate(106 93)"><circle cx="2.5" cy="2.5" r="2.5" transform="translate(89 212)" fill="#007bff"/></g><g transform="translate(133 93)"><circle cx="2.5" cy="2.5" r="2.5" transform="translate(89 212)" fill="#007bff"/></g><g transform="translate(-83 116)"><circle cx="2.5" cy="2.5" r="2.5" transform="translate(89 212)" fill="#007bff"/></g><g transform="translate(-56 116)"><circle cx="2.5" cy="2.5" r="2.5" transform="translate(89 212)" fill="#007bff"/></g><g transform="translate(-29 116)"><circle cx="2.5" cy="2.5" r="2.5" transform="translate(89 212)" fill="#007bff"/></g><g transform="translate(-2 116)"><circle cx="2.5" cy="2.5" r="2.5" transform="translate(89 212)" fill="#007bff"/></g><g transform="translate(25 116)"><circle cx="2.5" cy="2.5" r="2.5" transform="translate(89 212)" fill="#007bff"/></g><g transform="translate(52 116)"><circle cx="2.5" cy="2.5" r="2.5" transform="translate(89 212)" fill="#007bff"/></g><g transform="translate(79 116)"><circle cx="2.5" cy="2.5" r="2.5" transform="translate(89 212)" fill="#007bff"/></g><g transform="translate(106 116)"><circle cx="2.5" cy="2.5" r="2.5" transform="translate(89 212)" fill="#007bff"/></g><g transform="translate(133 116)"><circle cx="2.5" cy="2.5" r="2.5" transform="translate(89 212)" fill="#007bff"/></g><g transform="translate(-83 139)"><circle cx="2.5" cy="2.5" r="2.5" transform="translate(89 212)" fill="#007bff"/></g><g transform="translate(-56 139)"><circle cx="2.5" cy="2.5" r="2.5" transform="translate(89 212)" fill="#007bff"/></g><g transform="translate(-29 139)"><circle cx="2.5" cy="2.5" r="2.5" transform="translate(89 212)" fill="#007bff"/></g><g transform="translate(-2 139)"><circle cx="2.5" cy="2.5" r="2.5" transform="translate(89 212)" fill="#007bff"/></g><g transform="translate(25 139)"><circle cx="2.5" cy="2.5" r="2.5" transform="translate(89 212)" fill="#007bff"/></g><g transform="translate(52 139)"><circle cx="2.5" cy="2.5" r="2.5" transform="translate(89 212)" fill="#007bff"/></g><g transform="translate(79 139)"><circle cx="2.5" cy="2.5" r="2.5" transform="translate(89 212)" fill="#007bff"/></g><g transform="translate(106 139)"><circle cx="2.5" cy="2.5" r="2.5" transform="translate(89 212)" fill="#007bff"/></g><g transform="translate(133 139)"><circle cx="2.5" cy="2.5" r="2.5" transform="translate(89 212)" fill="#007bff"/></g><g transform="translate(-83 162)"><circle cx="2.5" cy="2.5" r="2.5" transform="translate(89 212)" fill="#007bff"/></g><g transform="translate(-56 162)"><circle cx="2.5" cy="2.5" r="2.5" transform="translate(89 212)" fill="#007bff"/></g><g transform="translate(-29 162)"><circle cx="2.5" cy="2.5" r="2.5" transform="translate(89 212)" fill="#007bff"/></g><g transform="translate(-2 162)"><circle cx="2.5" cy="2.5" r="2.5" transform="translate(89 212)" fill="#007bff"/></g><g transform="translate(25 162)"><circle cx="2.5" cy="2.5" r="2.5" transform="translate(89 212)" fill="#007bff"/></g><g transform="translate(52 162)"><circle cx="2.5" cy="2.5" r="2.5" transform="translate(89 212)" fill="#007bff"/></g><g transform="translate(79 162)"><circle cx="2.5" cy="2.5" r="2.5" transform="translate(89 212)" fill="#007bff"/></g><g transform="translate(106 162)"><circle cx="2.5" cy="2.5" r="2.5" transform="translate(89 212)" fill="#007bff"/></g><g transform="translate(133 162)"><circle cx="2.5" cy="2.5" r="2.5" transform="translate(89 212)" fill="#007bff"/></g><g transform="translate(-83 185)"><circle cx="2.5" cy="2.5" r="2.5" transform="translate(89 212)" fill="#007bff"/></g><g transform="translate(-56 185)"><circle cx="2.5" cy="2.5" r="2.5" transform="translate(89 212)" fill="#007bff"/></g><g transform="translate(-29 185)"><circle cx="2.5" cy="2.5" r="2.5" transform="translate(89 212)" fill="#007bff"/></g><g transform="translate(-2 185)"><circle cx="2.5" cy="2.5" r="2.5" transform="translate(89 212)" fill="#007bff"/></g><g transform="translate(25 185)"><circle cx="2.5" cy="2.5" r="2.5" transform="translate(89 212)" fill="#007bff"/></g><g transform="translate(52 185)"><circle cx="2.5" cy="2.5" r="2.5" transform="translate(89 212)" fill="#007bff"/></g><g transform="translate(79 185)"><circle cx="2.5" cy="2.5" r="2.5" transform="translate(89 212)" fill="#007bff"/></g><g transform="translate(106 185)"><circle cx="2.5" cy="2.5" r="2.5" transform="translate(89 212)" fill="#007bff"/></g><g transform="translate(133 185)"><circle cx="2.5" cy="2.5" r="2.5" transform="translate(89 212)" fill="#007bff"/></g><g transform="translate(-83 208)"><circle cx="2.5" cy="2.5" r="2.5" transform="translate(89 212)" fill="#007bff"/></g><g transform="translate(-56 208)"><circle cx="2.5" cy="2.5" r="2.5" transform="translate(89 212)" fill="#007bff"/></g><g transform="translate(-29 208)"><circle cx="2.5" cy="2.5" r="2.5" transform="translate(89 212)" fill="#007bff"/></g><g transform="translate(-2 208)"><circle cx="2.5" cy="2.5" r="2.5" transform="translate(89 212)" fill="#007bff"/></g><g transform="translate(25 208)"><circle cx="2.5" cy="2.5" r="2.5" transform="translate(89 212)" fill="#007bff"/></g><g transform="translate(52 208)"><circle cx="2.5" cy="2.5" r="2.5" transform="translate(89 212)" fill="#007bff"/></g><g transform="translate(79 208)"><circle cx="2.5" cy="2.5" r="2.5" transform="translate(89 212)" fill="#007bff"/></g><g transform="translate(106 208)"><circle cx="2.5" cy="2.5" r="2.5" transform="translate(89 212)" fill="#007bff"/></g><g transform="translate(133 208)"><circle cx="2.5" cy="2.5" r="2.5" transform="translate(89 212)" fill="#007bff"/></g><g transform="translate(-83 231)"><circle cx="2.5" cy="2.5" r="2.5" transform="translate(89 212)" fill="#007bff"/></g><g transform="translate(-56 231)"><circle cx="2.5" cy="2.5" r="2.5" transform="translate(89 212)" fill="#007bff"/></g><g transform="translate(-29 231)"><circle cx="2.5" cy="2.5" r="2.5" transform="translate(89 212)" fill="#007bff"/></g><g transform="translate(-2 231)"><circle cx="2.5" cy="2.5" r="2.5" transform="translate(89 212)" fill="#007bff"/></g><g transform="translate(25 231)"><circle cx="2.5" cy="2.5" r="2.5" transform="translate(89 212)" fill="#007bff"/></g><g transform="translate(52 231)"><circle cx="2.5" cy="2.5" r="2.5" transform="translate(89 212)" fill="#007bff"/></g><g transform="translate(79 231)"><circle cx="2.5" cy="2.5" r="2.5" transform="translate(89 212)" fill="#007bff"/></g><g transform="translate(106 231)"><circle cx="2.5" cy="2.5" r="2.5" transform="translate(89 212)" fill="#007bff"/></g><g transform="translate(133 231)"><circle cx="2.5" cy="2.5" r="2.5" transform="translate(89 212)" fill="#007bff"/></g><g transform="translate(-83 254)"><circle cx="2.5" cy="2.5" r="2.5" transform="translate(89 212)" fill="#007bff"/></g><g transform="translate(-56 254)"><circle cx="2.5" cy="2.5" r="2.5" transform="translate(89 212)" fill="#007bff"/></g><g transform="translate(-29 254)"><circle cx="2.5" cy="2.5" r="2.5" transform="translate(89 212)" fill="#007bff"/></g><g transform="translate(-2 254)"><circle cx="2.5" cy="2.5" r="2.5" transform="translate(89 212)" fill="#007bff"/></g><g transform="translate(25 254)"><circle cx="2.5" cy="2.5" r="2.5" transform="translate(89 212)" fill="#007bff"/></g><g transform="translate(52 254)"><circle cx="2.5" cy="2.5" r="2.5" transform="translate(89 212)" fill="#007bff"/></g><g transform="translate(79 254)"><circle cx="2.5" cy="2.5" r="2.5" transform="translate(89 212)" fill="#007bff"/></g><g transform="translate(106 254)"><circle cx="2.5" cy="2.5" r="2.5" transform="translate(89 212)" fill="#007bff"/></g><g transform="translate(133 254)"><circle cx="2.5" cy="2.5" r="2.5" transform="translate(89 212)" fill="#007bff"/></g></g></g><g clip-path="url(#ai)"><circle cx="387" cy="387" r="387" transform="translate(916 152)" fill="#007bff"/></g></g></svg>